# Blender 5.0.0
# www.blender.org
mtllib almond_bottle.mtl
o AlmondWater
v -0.017971 0.553644 0.060964
v 0.069212 0.007322 -0.083012
v 0.095787 0.007322 -0.049288
v 0.107780 0.007322 -0.008060
v 0.083211 0.007322 0.071614
v 0.050390 0.007322 0.097930
v -0.032101 0.007322 0.104099
v -0.069212 0.007322 0.083012
v -0.095787 0.007322 0.049288
v -0.107780 0.007322 0.008060
v -0.103363 0.007322 -0.034395
v -0.083211 0.007322 -0.071614
v -0.050390 0.007322 -0.097930
v -0.009330 -0.006220 -0.095872
v 0.059390 -0.006220 -0.072259
v 0.093320 -0.006220 -0.006318
v 0.072585 -0.006220 0.063324
v -0.027092 -0.006220 0.090992
v -0.059390 -0.006220 0.072259
v -0.093320 -0.006220 0.006318
v -0.072585 -0.006220 -0.063324
v -0.044332 -0.006220 -0.086156
v 0.029539 0.572739 0.057407
v -0.017840 0.572739 0.060520
v -0.039295 0.572739 0.048005
v -0.054768 0.572739 0.028181
v -0.061903 0.572739 0.004067
v -0.048249 0.572739 -0.042252
v -0.029539 0.572739 -0.057407
v 0.017840 0.572739 -0.060520
v 0.039295 0.572739 -0.048005
v 0.054768 0.572739 -0.028181
v 0.061903 0.572739 -0.004067
v 0.059614 0.572739 0.020666
v 0.048249 0.572739 0.042252
v -0.059614 0.572739 -0.020666
v -0.032172 0.576756 -0.062524
v -0.006896 0.576756 -0.069510
v 0.019430 0.576756 -0.065914
v 0.042798 0.576756 -0.052283
v 0.059650 0.576756 -0.030693
v 0.067421 0.576756 -0.004430
v 0.064928 0.576756 0.022508
v 0.052550 0.576756 0.046019
v 0.032172 0.576756 0.062524
v -0.019430 0.576756 0.065914
v -0.042798 0.576756 0.052283
v -0.059650 0.576756 0.030693
v -0.067421 0.576756 0.004430
v -0.064928 0.576756 -0.022508
v -0.052550 0.576756 -0.046019
v 0.028801 0.613288 -0.035185
v 0.035364 0.613288 0.030968
v 0.004641 0.613288 0.046777
v -0.028801 0.613288 0.035184
v -0.035364 0.613288 -0.030969
v -0.048897 0.560437 -0.042820
v -0.029935 0.560437 -0.058177
v -0.010241 0.430254 -0.119272
v 0.035920 0.430254 -0.113803
v 0.076612 0.430254 -0.091008
v 0.105641 0.430254 -0.054358
v 0.118588 0.430254 -0.009432
v 0.113480 0.430254 0.036929
v 0.091096 0.430254 0.077669
v 0.054843 0.430254 0.106584
v 0.010241 0.430254 0.119272
v -0.035920 0.430254 0.113803
v -0.076612 0.430254 0.091008
v -0.105641 0.430254 0.054358
v -0.118588 0.430254 0.009432
v -0.113480 0.430254 -0.036929
v -0.091096 0.430254 -0.077669
v -0.005910 0.553644 0.063850
v -0.010781 0.039342 -0.130239
v 0.039875 0.039342 -0.124443
v 0.084459 0.039342 -0.099703
v 0.116186 0.039342 -0.059783
v 0.130224 0.039342 -0.010763
v 0.124437 0.039342 0.039897
v 0.099705 0.039342 0.084482
v 0.059794 0.039342 0.116206
v 0.010781 0.039342 0.130239
v -0.039875 0.039342 0.124443
v -0.084459 0.039342 0.099703
v -0.116186 0.039342 0.059783
v -0.130224 0.039342 0.010763
v -0.124437 0.039342 -0.039897
v -0.099705 0.039342 -0.084482
v -0.107633 0.007322 -0.013425
v -0.011318 0.007322 0.108802
v 0.030733 0.007322 0.105657
v 0.068105 0.007322 0.086427
v 0.095109 0.007322 0.054040
v 0.051646 0.007322 -0.095382
v 0.011318 0.007322 -0.108802
v 0.009054 -0.006220 -0.095256
v 0.082771 -0.006220 0.048007
v 0.059600 -0.006220 0.076199
v 0.027355 -0.006220 0.092791
v -0.055171 0.553644 0.028388
v -0.038564 0.570117 0.047111
v -0.017508 0.570117 0.059394
v -0.047352 0.570117 -0.041466
v 0.028989 0.570117 0.056339
v -0.060752 0.570117 0.003992
v -0.043188 0.576756 -0.055331
v -0.031721 0.576756 0.060253
v -0.006389 0.576756 0.069034
v 0.019915 0.576756 0.067306
v 0.043188 0.576756 0.055331
v 0.059886 0.576756 0.034932
v 0.067467 0.576756 0.009215
v 0.064776 0.576756 -0.017904
v 0.006389 0.576756 -0.069034
v -0.019915 0.576756 -0.067306
v -0.062271 0.573649 -0.021587
v -0.030855 0.573649 -0.059965
v 0.050400 0.573649 0.044136
v 0.057209 0.573649 -0.029437
v 0.041046 0.573649 -0.050144
v 0.018635 0.573649 -0.063217
v -0.060449 0.608700 0.031104
v 0.068324 0.608700 -0.004489
v -0.043371 0.608700 0.052983
v 0.060449 0.608700 -0.031104
v -0.019690 0.608700 0.066797
v 0.043371 0.608700 -0.052983
v 0.006988 0.608700 0.070441
v 0.019690 0.608700 -0.066797
v -0.053253 0.608700 -0.046635
v 0.032603 0.608700 0.063361
v -0.065797 0.608700 -0.022809
v 0.053253 0.608700 0.046635
v -0.068324 0.608700 0.004489
v 0.065797 0.608700 0.022809
v -0.032603 0.608700 -0.063361
v -0.005867 0.572739 0.063384
v 0.018285 0.572739 0.061798
v 0.005867 0.572739 -0.063384
v -0.018285 0.572739 -0.061798
v 0.060752 0.570117 -0.003992
v 0.053749 0.570117 -0.027657
v 0.038564 0.570117 -0.047111
v -0.029756 0.553644 -0.057829
v 0.017508 0.570117 -0.059394
v -0.058505 0.570117 -0.020281
v 0.047352 0.570117 0.041466
v 0.058505 0.570117 0.020281
v -0.064662 0.573649 0.004249
v -0.057209 0.573649 0.029437
v -0.041046 0.573649 0.050144
v -0.050400 0.573649 -0.044136
v -0.006614 0.573649 -0.066666
v -0.018531 0.560437 -0.062627
v 0.005945 0.560437 -0.064235
v -0.039584 0.553644 0.048357
v -0.017971 0.553644 0.060964
v 0.006378 0.553644 0.064290
v -0.048604 0.553644 -0.042563
v 0.029756 0.553644 0.057829
v -0.062358 0.553644 0.004097
v 0.062358 0.553644 -0.004097
v 0.055171 0.553644 -0.028388
v 0.039584 0.553644 -0.048357
v 0.017971 0.553644 -0.060964
v -0.060052 0.553644 -0.020817
v 0.048604 0.553644 0.042563
v 0.060052 0.553644 0.020817
v -0.053749 0.570117 0.027657
v -0.028989 0.570117 -0.056339
v 0.038032 0.028534 -0.119621
v 0.124904 0.028534 -0.010122
v 0.119441 0.028534 0.038593
v -0.038032 0.028534 0.119621
v -0.119441 0.028534 -0.038593
v -0.059794 0.039342 -0.116206
v -0.054843 0.430254 -0.106584
v 0.013998 0.028534 -0.124844
v 0.060599 0.028534 -0.109786
v 0.124558 0.028534 0.014513
v 0.109720 0.028534 0.061184
v -0.013998 0.028534 0.124844
v -0.124558 0.028534 -0.014513
v -0.033178 0.430254 -0.115133
v -0.005757 0.570117 0.062205
v 0.005757 0.570117 -0.062205
v 0.017945 0.570117 0.060648
v -0.017945 0.570117 -0.060648
v 0.057435 0.573649 0.033503
v 0.064706 0.573649 0.008838
v 0.062125 0.573649 -0.017172
v -0.030423 0.573649 0.057787
v -0.006128 0.573649 0.066209
v -0.041421 0.573649 -0.053067
v 0.019100 0.573649 0.064552
v 0.041421 0.573649 0.053067
v -0.006475 0.608700 0.069958
v 0.020182 0.608700 0.068207
v 0.006475 0.608700 -0.069958
v -0.020182 0.608700 -0.068207
v -0.005910 0.553644 0.063850
v 0.005910 0.553644 -0.063850
v 0.018420 0.553644 0.062252
v -0.018420 0.553644 -0.062252
v 0.014831 0.039342 -0.129827
v 0.129816 0.039342 0.014852
v -0.014831 0.039342 0.129827
v 0.013090 0.430254 -0.118813
v 0.118299 0.430254 0.014017
vn -0.9600 0.2651 0.0901
vn -0.9308 0.2198 -0.2922
vn -0.9714 0.2221 0.0845
vn -0.9818 -0.1628 0.0972
vn -0.8574 0.2651 0.4412
vn -0.8775 -0.1618 0.4515
vn 0.4268 -0.2579 0.8668
vn 0.0763 0.2168 0.9732
vn 0.1249 -0.2565 0.9584
vn 0.4990 -0.8545 -0.1442
vn 0.8771 -0.3887 -0.2821
vn 0.9138 -0.3960 -0.0901
vn -0.0708 0.9968 0.0364
vn 0.0007 0.9995 0.0331
vn 0.0747 0.9970 0.0220
vn -0.3791 -0.1634 0.9108
vn -0.6314 0.2652 0.7287
vn -0.2691 0.8021 0.5331
vn 0.4431 -0.4079 0.7983
vn 0.2554 0.6392 0.7253
vn 0.2155 -0.3960 0.8926
vn -0.9304 -0.3553 0.0904
vn -0.5333 -0.8369 -0.1235
vn -0.5595 -0.8270 0.0562
vn -0.0420 -0.8501 0.5250
vn -0.3250 -0.4029 0.8556
vn -0.1758 -0.8571 0.4843
vn 0.4893 -0.6244 0.6088
vn 0.2286 -0.9166 0.3280
vn 0.3045 -0.9217 0.2405
vn 0.3389 -0.6317 0.6972
vn 0.1455 -0.6399 0.7546
vn 0.0517 -0.9056 0.4209
vn -0.2355 -0.6805 0.6938
vn -0.2947 -0.9140 0.2789
vn -0.1475 -0.8986 0.4133
vn -0.6271 -0.2766 0.7282
vn -0.6454 -0.6879 0.3321
vn -0.5023 -0.6718 0.5444
vn -0.4579 -0.8067 -0.3736
vn -0.5006 -0.1127 -0.8583
vn -0.7702 -0.1403 -0.6222
vn 0.0950 -0.1385 -0.9858
vn 0.1819 -0.7510 -0.6347
vn 0.3794 -0.1634 -0.9107
vn 0.0338 -0.7475 -0.6634
vn -0.2136 -0.1124 -0.9704
vn -0.1227 -0.7488 -0.6513
vn 0.9474 -0.1653 0.2740
vn 0.6661 -0.7431 -0.0647
vn 0.6483 -0.7493 0.1351
vn -0.0948 -0.1385 0.9858
vn -0.1818 -0.7509 0.6349
vn 0.4758 -0.8499 -0.2263
vn 0.8165 -0.3481 -0.4606
vn 0.5006 -0.1128 0.8583
vn 0.1227 -0.7487 0.6514
vn 0.2136 -0.1124 0.9704
vn -0.6499 -0.1628 0.7424
vn -0.6206 -0.7415 0.2549
vn -0.7722 0.0871 -0.6294
vn 0.7702 -0.1403 0.6222
vn -0.4947 0.1834 -0.8495
vn -0.7541 0.2243 -0.6173
vn -0.9246 0.2637 -0.2748
vn 0.3728 -0.6087 -0.7004
vn 0.3598 -0.2226 -0.9061
vn 0.6382 -0.2595 -0.7248
vn 0.4537 -0.8086 0.3745
vn -0.0899 0.6206 0.7790
vn 0.0684 0.2317 0.9704
vn 0.6148 -0.7463 -0.2549
vn 0.6499 -0.1628 -0.7424
vn 0.3925 -0.8013 -0.4515
vn 0.1094 -0.8512 0.5132
vn -0.1564 0.6065 -0.7795
vn -0.3547 0.6105 -0.7082
vn -0.0440 0.9987 -0.0275
vn -0.0321 -0.8653 -0.5003
vn -0.0922 -0.3926 0.9151
vn -0.6037 -0.6422 -0.4724
vn -0.4255 -0.2634 -0.8658
vn -0.3254 -0.6262 -0.7085
vn -0.6715 -0.7381 0.0652
vn -0.5176 -0.8295 0.2096
vn -0.8317 -0.3539 0.4279
vn 0.6314 0.2651 -0.7287
vn 0.3477 0.2211 -0.9112
vn 0.3645 0.2621 -0.8936
vn 0.5025 -0.8643 0.0212
vn 0.9063 -0.4139 0.0855
vn 0.8791 -0.3995 0.2601
vn -0.2156 -0.4073 -0.8875
vn -0.0608 -0.4195 -0.9057
vn 0.7764 -0.5779 0.2514
vn 0.6917 -0.6488 0.3171
vn 0.7088 -0.7027 -0.0625
vn -0.6279 -0.3545 0.6929
vn -0.3596 -0.8501 0.3849
vn -0.1702 -0.8571 -0.4862
vn -0.6140 -0.3733 -0.6954
vn -0.4321 -0.3906 -0.8128
vn 0.7372 -0.5943 0.3215
vn 0.9094 -0.2179 0.3542
vn 0.7323 -0.2381 0.6380
vn -0.0337 -0.7474 0.6635
vn 0.6266 -0.3581 -0.6922
vn 0.7271 0.6189 -0.2972
vn 0.4279 -0.9018 -0.0602
vn -0.0555 -0.9212 -0.3851
vn 0.2851 -0.9054 -0.3147
vn 0.0954 -0.4046 -0.9095
vn 0.3276 -0.3865 -0.8621
vn 0.1281 -0.8514 -0.5086
vn -0.9474 -0.1653 -0.2739
vn 0.0535 -0.6746 -0.7363
vn 0.3013 -0.5868 -0.7516
vn 0.3729 -0.6081 -0.7008
vn 0.0996 0.0866 -0.9913
vn -0.2173 0.0751 -0.9732
vn 0.8574 0.2651 -0.4412
vn 0.9682 0.2252 -0.1089
vn 0.8667 0.2233 -0.4460
vn 0.7597 0.6100 0.2254
vn -0.2783 -0.5706 0.7726
vn -0.7104 0.6014 0.3656
vn 0.9225 0.2228 0.3153
vn -0.5492 0.6084 0.5729
vn -0.4492 -0.3897 0.8039
vn -0.7888 0.6039 0.1143
vn -0.8877 -0.3623 -0.2842
vn 0.6345 0.6121 0.4720
vn 0.7220 -0.3583 0.5919
vn 0.8105 -0.3943 0.4331
vn 0.7882 0.6141 -0.0405
vn 0.7474 0.2174 0.6278
vn 0.2505 0.6074 -0.7538
vn 0.0508 0.6071 -0.7930
vn 0.9818 -0.1628 -0.0972
vn 0.8775 -0.1618 -0.4515
vn -0.1477 0.7679 0.6232
vn -0.0287 0.9521 0.3045
vn 0.2377 0.1914 0.9523
vn 0.4739 0.1825 0.8615
vn -0.2150 0.1867 -0.9586
vn 0.0870 0.2262 -0.9702
vn 0.0513 0.6640 0.7460
vn -0.1549 0.6366 0.7554
vn 0.9239 0.2662 0.2749
vn 0.9694 0.2217 0.1052
vn 0.9593 0.2676 -0.0903
vn -0.7755 0.6116 -0.1570
vn -0.7465 -0.3556 -0.5625
vn -0.6540 -0.7446 -0.1339
vn -0.3035 0.2199 0.9271
vn 0.4467 0.2157 0.8683
vn -0.4662 0.2175 -0.8576
vn 0.7541 0.2243 0.6173
vn -0.4048 -0.8679 -0.2880
vn -0.2936 -0.8561 -0.4252
vn 0.0939 0.2225 -0.9704
vn -0.3641 -0.9061 -0.2156
vn -0.1974 -0.9070 -0.3719
vn -0.7473 0.2175 -0.6279
vn 0.5185 0.6212 -0.5876
vn -0.7616 -0.6401 -0.1005
vn -0.7561 -0.6008 -0.2593
vn -0.6887 -0.6598 -0.3005
vn 0.4503 0.6245 0.6382
vn 0.5799 -0.3979 0.7109
vn -0.8667 0.2233 0.4460
vn -0.8536 -0.2801 0.4392
vn -0.1018 0.2176 -0.9707
vn 0.3787 -0.8697 0.3164
vn 0.4758 -0.8631 0.1693
vn -0.9608 -0.2595 0.0979
vn -0.7620 -0.6398 -0.1000
vn -0.7360 -0.6723 0.0797
vn -0.6334 0.2221 0.7413
vn -0.3210 -0.2394 0.9163
vn 0.8130 -0.5766 -0.0811
vn 0.6433 -0.6873 -0.3372
vn 0.9607 -0.2451 -0.1301
vn 0.8516 -0.2793 -0.4437
vn -0.3520 0.6237 0.6980
vn -0.1512 -0.2566 -0.9546
vn 0.2550 -0.8641 0.4339
vn 0.0453 -0.6307 0.7747
vn -0.3967 -0.7992 0.4516
vn 0.8162 -0.5641 0.1246
vn -0.7352 -0.2623 -0.6251
vn 0.9722 -0.2072 0.1092
vn -0.0689 -0.2415 0.9680
vn 0.0703 -0.2348 -0.9695
vn -0.9261 -0.2560 -0.2770
vn -0.3974 -0.9167 0.0418
vn 0.6333 0.2221 -0.7413
vn -0.2431 0.2254 -0.9435
vn 0.4988 -0.6576 -0.5646
vn 0.0396 0.9986 -0.0355
vn 0.4157 -0.8961 0.1556
vn 0.5995 -0.6042 0.5249
vn -0.2688 -0.7545 -0.5987
vn 0.3585 -0.8508 -0.3842
vn 0.2688 -0.7544 0.5989
vn -0.5004 0.0752 -0.8625
vn -0.6065 0.6240 -0.4928
vn 0.0821 -0.8989 -0.4305
vn 0.0383 -0.5668 -0.8230
vn 0.0094 -0.5631 0.8263
vt 0.788134 0.026843
vt 0.863731 0.178242
vt 0.819052 0.179281
vt 0.787202 0.006683
vt 0.758332 0.027087
vt 0.758168 0.006921
vt 0.380732 0.660258
vt 0.433625 0.182037
vt 0.440328 0.658775
vt 0.006187 0.768018
vt 0.002978 0.767028
vt 0.009120 0.751424
vt 0.496759 0.922252
vt 0.523530 0.888314
vt 0.565540 0.884353
vt 0.938336 0.006384
vt 0.964577 0.026300
vt 0.937518 0.026563
vt 0.165593 0.878953
vt 0.204645 0.895021
vt 0.165856 0.894699
vt 0.153694 0.831007
vt 0.131281 0.854389
vt 0.150736 0.829379
vt 0.131265 0.727120
vt 0.144758 0.736174
vt 0.150724 0.751768
vt 0.825634 0.703234
vt 0.827589 0.719361
vt 0.805739 0.723977
vt 0.851428 0.703159
vt 0.876716 0.708245
vt 0.871664 0.723685
vt 0.940163 0.751447
vt 0.947087 0.802189
vt 0.926346 0.761581
vt 0.703495 0.657157
vt 0.763021 0.695629
vt 0.710891 0.695463
vt 0.378292 0.697175
vt 0.352497 0.697168
vt 0.574453 0.003917
vt 0.603548 0.007218
vt 0.574850 0.007022
vt 0.058018 0.009138
vt 0.067792 0.006575
vt 0.068793 0.009659
vt 0.643941 0.002993
vt 0.617727 0.007029
vt 0.618143 0.003924
vt 0.177541 0.006130
vt 0.154955 0.005015
vt 0.178603 0.002978
vt 0.927807 0.006345
vt 0.937307 0.003239
vt 0.457411 0.762661
vt 0.453885 0.762303
vt 0.457162 0.746849
vt 0.372739 0.007515
vt 0.387338 0.004202
vt 0.386927 0.007277
vt 0.728189 0.006830
vt 0.758286 0.003761
vt 0.574167 0.018975
vt 0.317700 0.002978
vt 0.344050 0.007258
vt 0.318584 0.006077
vt 0.603753 0.027425
vt 0.574296 0.027224
vt 0.548113 0.026278
vt 0.062396 0.675452
vt 0.033197 0.662119
vt 0.088413 0.663020
vt 0.343649 0.004182
vt 0.412287 0.006119
vt 0.413532 0.026298
vt 0.401210 0.027004
vt 0.125592 0.006414
vt 0.095479 0.010039
vt 0.094985 0.006962
vt 0.104216 0.712230
vt 0.103243 0.715600
vt 0.585426 0.875848
vt 0.569144 0.875998
vt 0.551296 0.840535
vt 0.044359 0.864162
vt 0.033676 0.852576
vt 0.059571 0.866830
vt 0.133392 0.724385
vt 0.558153 0.696434
vt 0.611784 0.659354
vt 0.609270 0.696766
vt 0.147778 0.827750
vt 0.159636 0.798558
vt 0.455728 0.873998
vt 0.452035 0.904590
vt 0.452035 0.872368
vt 0.095381 0.030249
vt 0.029886 0.185224
vt 0.067989 0.029860
vt 0.020642 0.739558
vt 0.018049 0.737354
vt 0.029405 0.725346
vt 0.057625 0.873570
vt 0.042779 0.867274
vt 0.741281 0.718332
vt 0.776479 0.718591
vt 0.722359 0.773927
vt 0.610392 0.910993
vt 0.614078 0.924666
vt 0.610392 0.925790
vt 0.165593 0.766579
vt 0.169157 0.750864
vt 0.169154 0.766931
vt 0.293078 0.671485
vt 0.263887 0.657333
vt 0.318774 0.659752
vt 0.413179 0.003021
vt 0.453677 0.795643
vt 0.415075 0.762186
vt 0.738350 0.781714
vt 0.784395 0.941578
vt 0.729509 0.871847
vt 0.029422 0.858046
vt 0.018056 0.846257
vt 0.020648 0.844005
vt 0.455370 0.936809
vt 0.451661 0.937858
vt 0.810871 0.006152
vt 0.787870 0.003519
vt 0.754645 0.941176
vt 0.720068 0.934591
vt 0.722147 0.900703
vt 0.644588 0.018039
vt 0.618443 0.018982
vt 0.126213 0.029698
vt 0.191843 0.182416
vt 0.137372 0.185044
vt 0.412696 0.703602
vt 0.451538 0.704493
vt 0.452429 0.716347
vt 0.964729 0.694978
vt 0.905989 0.670302
vt 0.956372 0.656870
vt 0.413075 0.904179
vt 0.273170 0.180703
vt 0.653035 0.923845
vt 0.614078 0.909237
vt 0.413075 0.871525
vt 0.451661 0.846096
vt 0.204666 0.846801
vt 0.165877 0.847115
vt 0.166414 0.832249
vt 0.641535 0.733608
vt 0.656802 0.763405
vt 0.603329 0.738187
vt 0.208223 0.782993
vt 0.169364 0.782667
vt 0.323103 0.182925
vt 0.413713 0.825966
vt 0.451675 0.837181
vt 0.412835 0.838066
vt 0.414314 0.729750
vt 0.453134 0.730295
vt 0.453625 0.745816
vt 0.208011 0.767047
vt 0.154333 0.008129
vt 0.125517 0.009501
vt 0.926710 0.026523
vt 0.387501 0.027488
vt 0.372938 0.027731
vt 0.618307 0.027231
vt 0.644295 0.026293
vt 0.205174 0.910042
vt 0.205948 0.923542
vt 0.167142 0.922843
vt 0.317350 0.026255
vt 0.179613 0.026237
vt 0.215531 0.180603
vt 0.155792 0.028289
vt 0.209268 0.706083
vt 0.169371 0.735083
vt 0.170394 0.706773
vt 0.548461 0.002978
vt 0.549341 0.006101
vt 0.056361 0.021088
vt 0.898299 0.179776
vt 0.379447 0.183393
vt 0.610460 0.182098
vt 0.343490 0.027468
vt 0.104234 0.869782
vt 0.105207 0.873134
vt 0.089120 0.873065
vt 0.009412 0.184177
vt 0.870856 0.950059
vt 0.825168 0.970877
vt 0.826746 0.954783
vt 0.554099 0.181742
vt 0.452542 0.825240
vt 0.414864 0.795972
vt 0.939860 0.922059
vt 0.935314 0.955704
vt 0.921594 0.940752
vt 0.423689 0.025568
vt 0.477389 0.179062
vt 0.204378 0.879065
vt 0.165600 0.862886
vt 0.727561 0.026993
vt 0.764159 0.179743
vt 0.765377 0.657362
vt 0.664589 0.181024
vt 0.403582 0.696758
vt 0.033661 0.730737
vt 0.015036 0.754681
vt 0.058581 0.712649
vt 0.044347 0.718962
vt 0.042766 0.715879
vt 0.825216 0.656855
vt 0.847708 0.669395
vt 0.813469 0.695208
vt 0.948270 0.179323
vt 0.901864 0.657356
vt 0.207196 0.671853
vt 0.198390 0.696442
vt 0.148327 0.698846
vt 0.209808 0.659079
vt 0.150431 0.661952
vt 0.209251 0.811467
vt 0.170378 0.810765
vt 0.169777 0.797471
vt 0.614375 0.883725
vt 0.653136 0.894196
vt 0.614178 0.895409
vt 0.707409 0.179558
vt 0.671326 0.658179
vt 0.073695 0.709366
vt 0.089432 0.705719
vt 0.921950 0.732860
vt 0.504086 0.180009
vt 0.707368 0.824175
vt 0.964168 0.002978
vt 0.246966 0.668351
vt 0.268151 0.670106
vt 0.499085 0.669954
vt 0.549808 0.658968
vt 0.235621 0.657093
vt 0.232054 0.669945
vt 0.880051 0.657245
vt 0.037185 0.674791
vt 0.010852 0.660961
vt 0.688187 0.179993
vt 0.697292 0.657054
vt 0.873904 0.655714
vt 0.504074 0.749006
vt 0.524642 0.722588
vt 0.528677 0.762563
vt 0.969227 0.849861
vt 0.938245 0.892322
vt 0.080500 0.186030
vt 0.494834 0.657082
vt 0.253062 0.179030
vt 0.241793 0.655511
vt 0.488489 0.655529
vt 0.466345 0.657346
vt 0.638339 0.181734
vt 0.096087 0.699762
vt 0.002978 0.816860
vt 0.812429 0.026298
vt 0.602333 0.956724
vt 0.533552 0.994623
vt 0.964698 0.006127
vt 0.133409 0.857084
vt 0.153681 0.750084
vt 0.785145 0.732950
vt 0.800324 0.708434
vt 0.964286 0.797658
vt 0.327190 0.696740
vt 0.603695 0.004117
vt 0.056813 0.006044
vt 0.643046 0.006116
vt 0.926577 0.003199
vt 0.457212 0.794637
vt 0.372882 0.004443
vt 0.727739 0.003668
vt 0.603801 0.019177
vt 0.071661 0.699608
vt 0.059555 0.716001
vt 0.088775 0.712716
vt 0.139573 0.740678
vt 0.156627 0.766620
vt 0.153417 0.767669
vt 0.129138 0.729855
vt 0.538135 0.866421
vt 0.625948 0.816159
vt 0.616439 0.865721
vt 0.629983 0.856133
vt 0.650550 0.829715
vt 0.074039 0.869715
vt 0.103260 0.866430
vt 0.073711 0.873214
vt 0.006187 0.815811
vt 0.023241 0.841752
vt 0.009397 0.814762
vt 0.105189 0.708860
vt 0.129153 0.851694
vt 0.156299 0.798245
vt 0.455728 0.904902
vt 0.073382 0.876712
vt 0.703422 0.764705
vt 0.720087 0.739654
vt 0.766215 0.701585
vt 0.165595 0.751170
vt 0.303349 0.695903
vt 0.765936 0.928774
vt 0.811988 0.002978
vt 0.741273 0.955863
vt 0.703422 0.909557
vt 0.712310 0.876378
vt 0.918848 0.695404
vt 0.412696 0.937892
vt 0.412696 0.844902
vt 0.167189 0.818853
vt 0.205995 0.818160
vt 0.659968 0.797153
vt 0.561319 0.734226
vt 0.585481 0.702722
vt 0.553228 0.706335
vt 0.569199 0.702872
vt 0.616490 0.712299
vt 0.208231 0.734772
vt 0.235621 0.178547
vt 0.056929 0.029325
vt 0.089449 0.876557
vt 0.876272 0.965602
vt 0.954236 0.900109
vt 0.956508 0.934382
vt 0.462192 0.670126
vt 0.448826 0.694734
vt 0.003178 0.783873
vt 0.006516 0.784186
vt 0.057607 0.709297
vt 0.073365 0.705873
vt 0.869317 0.668781
vt 0.835613 0.694795
vt 0.653336 0.882356
vt 0.693126 0.669933
vt 0.679716 0.694839
vt 0.935322 0.718173
vt 0.956527 0.739445
vt 0.512766 0.694839
vt 0.884998 0.670198
vt 0.015684 0.673684
vt 0.538185 0.712999
vt 0.497823 0.815315
vt 0.513090 0.845112
vt 0.494657 0.781567
s 1
usemtl BakeLabel
f 162/1/1 72/2/2 71/3/3
f 82/7/7 67/8/8 83/9/9
f 93/28/28 99/29/29 17/30/30
f 6/31/31 92/32/32 100/33/33
f 7/34/34 19/35/35 18/36/36
f 85/37/37 9/38/38 8/39/39
f 82/7/7 6/40/31 93/41/28
f 180/71/66 76/72/67 77/73/68
f 12/90/81 177/91/82 13/92/83
f 165/98/87 60/99/88 166/100/89
f 174/106/95 94/107/96 4/108/97
f 182/115/103 80/116/104 81/117/105
f 16/121/109 14/122/110 15/123/111
f 96/131/116 172/132/117 95/133/118
f 164/136/121 63/137/122 62/138/123
f 8/142/39 175/143/125 85/144/37
f 64/146/127 81/117/105 80/116/104
f 65/159/136 82/7/7 81/117/105
f 169/178/149 210/179/150 163/180/151
f 157/17/17 68/187/155 1/18/141
f 66/188/156 161/171/144 204/170/143
f 205/172/145 178/189/157 145/68/63
f 168/190/158 66/188/156 65/159/136
f 209/194/161 166/100/89 60/99/88
f 21/195/162 13/196/83 22/197/163
f 160/69/64 178/189/157 73/198/164
f 90/201/166 176/202/167 11/203/168
f 202/76/70 1/204/141 68/205/155
f 101/5/5 71/3/3 70/209/171
f 85/37/37 70/209/171 86/210/172
f 59/211/173 205/172/145 203/173/146
f 82/7/7 83/9/9 92/212/32
f 87/218/176 9/38/38 86/210/172
f 87/218/176 184/219/177 10/220/178
f 69/221/179 84/222/180 68/187/155
f 173/223/181 4/224/97 3/225/182
f 62/138/123 79/226/183 78/227/184
f 101/5/5 69/234/179 157/208/17
f 13/92/83 177/91/82 75/235/186
f 14/122/110 13/196/83 96/131/116
f 7/34/34 18/36/36 91/238/188
f 167/70/65 73/198/164 72/239/2
f 15/123/111 3/240/182 16/121/109
f 181/242/190 80/116/104 174/243/95
f 12/90/81 176/244/167 89/245/191
f 173/223/181 207/246/192 181/247/190
f 175/143/125 208/248/193 84/222/180
f 172/249/117 206/250/194 76/72/67
f 75/235/186 209/251/161 206/252/194
f 70/209/171 87/218/176 86/210/172
f 71/3/3 88/253/195 87/218/176
f 19/35/35 9/257/38 20/258/196
f 61/259/197 76/72/67 60/99/88
f 164/136/121 61/259/197 165/98/87
f 73/198/164 177/91/82 89/245/191
f 169/177/149 65/159/136 64/146/127
f 72/239/2 89/245/191 88/260/195
f 77/73/68 62/138/123 78/227/184
f 207/246/192 63/137/122 210/179/150
f 206/250/194 60/99/88 76/72/67
f 210/261/150 80/116/104 207/262/192
f 68/205/155 84/263/180 208/264/193
f 177/91/82 178/189/157 185/265/198
f 77/73/68 3/225/182 2/266/199
f 20/258/196 21/195/162 14/122/110
f 162/1/1 167/268/65 72/2/2
f 82/7/7 66/188/156 67/8/8
f 17/30/30 98/274/201 5/275/202
f 98/274/201 94/107/96 5/275/202
f 5/275/202 93/28/28 17/30/30
f 100/33/33 99/29/29 6/31/31
f 99/29/29 93/28/28 6/31/31
f 7/34/34 8/276/39 19/35/35
f 85/37/37 86/210/172 9/38/38
f 93/41/28 5/277/202 81/117/105
f 81/117/105 82/7/7 93/41/28
f 180/71/66 172/249/117 76/72/67
f 77/73/68 2/266/199 180/71/66
f 2/266/199 95/286/118 180/71/66
f 12/90/81 89/245/191 177/91/82
f 165/98/87 61/259/197 60/99/88
f 98/274/201 16/121/109 94/107/96
f 16/121/109 4/108/97 94/107/96
f 4/108/97 173/309/181 181/310/190
f 181/310/190 174/106/95 4/108/97
f 174/106/95 182/311/103 94/107/96
f 182/115/103 174/243/95 80/116/104
f 81/117/105 5/277/202 182/115/103
f 5/277/202 94/313/96 182/115/103
f 16/121/109 98/274/201 17/30/30
f 17/30/30 14/122/110 16/121/109
f 14/122/110 97/314/208 15/123/111
f 15/123/111 97/314/208 95/133/118
f 97/314/208 96/131/116 95/133/118
f 96/131/116 179/316/209 172/132/117
f 172/132/117 180/317/66 95/133/118
f 95/133/118 2/318/199 15/123/111
f 164/136/121 163/180/151 63/137/122
f 7/319/34 175/143/125 8/142/39
f 175/143/125 84/222/180 85/144/37
f 64/146/127 65/159/136 81/117/105
f 65/159/136 66/188/156 82/7/7
f 64/331/127 210/179/150 169/178/149
f 210/179/150 63/137/122 163/180/151
f 157/17/17 69/221/179 68/187/155
f 1/18/141 158/18/18 157/17/17
f 204/170/143 159/77/71 67/8/8
f 67/8/8 66/188/156 204/170/143
f 205/172/145 185/265/198 178/189/157
f 168/190/158 161/171/144 66/188/156
f 209/194/161 203/332/146 166/100/89
f 21/195/162 12/334/81 13/196/83
f 160/69/64 145/68/63 178/189/157
f 21/195/162 20/258/196 11/203/168
f 20/258/196 10/335/178 90/201/166
f 90/201/166 184/336/177 176/202/167
f 20/258/196 90/201/166 11/203/168
f 11/203/168 12/334/81 21/195/162
f 68/205/155 67/8/8 202/76/70
f 67/8/8 159/77/71 202/76/70
f 202/76/70 74/76/142 1/204/141
f 101/5/5 162/1/1 71/3/3
f 85/37/37 69/234/179 70/209/171
f 203/173/146 209/251/161 59/211/173
f 59/211/173 185/265/198 205/172/145
f 208/264/193 183/337/210 83/9/9
f 183/337/210 91/338/188 83/9/9
f 92/212/32 6/40/31 82/7/7
f 91/338/188 92/212/32 83/9/9
f 87/218/176 10/220/178 9/38/38
f 87/218/176 88/253/195 184/219/177
f 88/253/195 176/343/167 184/219/177
f 184/219/177 90/344/166 10/220/178
f 69/221/179 85/144/37 84/222/180
f 3/225/182 78/227/184 173/223/181
f 78/227/184 79/226/183 173/223/181
f 62/138/123 63/137/122 79/226/183
f 101/5/5 70/209/171 69/234/179
f 206/252/194 179/346/209 75/235/186
f 179/346/209 96/347/116 75/235/186
f 96/347/116 13/92/83 75/235/186
f 96/131/116 97/314/208 14/122/110
f 14/122/110 22/197/163 13/196/83
f 18/36/36 100/33/33 91/238/188
f 100/33/33 92/32/32 91/238/188
f 91/238/188 183/348/210 7/34/34
f 183/348/210 175/349/125 7/34/34
f 167/70/65 160/69/64 73/198/164
f 2/318/199 3/240/182 15/123/111
f 3/240/182 4/108/97 16/121/109
f 181/242/190 207/262/192 80/116/104
f 11/350/168 176/244/167 12/90/81
f 176/244/167 88/260/195 89/245/191
f 173/223/181 79/226/183 207/246/192
f 175/143/125 183/351/210 208/248/193
f 172/249/117 179/352/209 206/250/194
f 75/235/186 59/211/173 209/251/161
f 70/209/171 71/3/3 87/218/176
f 71/3/3 72/2/2 88/253/195
f 8/276/39 9/257/38 19/35/35
f 9/257/38 10/335/178 20/258/196
f 61/259/197 77/73/68 76/72/67
f 164/136/121 62/138/123 61/259/197
f 73/198/164 178/189/157 177/91/82
f 169/177/149 168/190/158 65/159/136
f 72/239/2 73/198/164 89/245/191
f 77/73/68 61/259/197 62/138/123
f 207/246/192 79/226/183 63/137/122
f 206/250/194 209/194/161 60/99/88
f 210/261/150 64/146/127 80/116/104
f 83/9/9 67/8/8 208/264/193
f 67/8/8 68/205/155 208/264/193
f 59/211/173 75/235/186 185/265/198
f 75/235/186 177/91/82 185/265/198
f 77/73/68 78/227/184 3/225/182
f 22/197/163 14/122/110 21/195/162
f 14/122/110 17/30/30 20/258/196
f 17/30/30 99/29/29 100/33/33
f 100/33/33 18/36/36 17/30/30
f 18/36/36 19/35/35 17/30/30
f 19/35/35 20/258/196 17/30/30
usemtl BakeCover
f 106/4/4 101/5/5 170/6/6
f 192/10/10 114/11/11 42/12/12
f 55/13/13 54/14/14 53/15/15
f 103/16/16 157/17/17 158/18/18
f 45/19/19 199/20/20 110/21/21
f 49/22/22 117/23/23 150/24/24
f 194/25/25 46/26/26 193/27/27
f 28/42/40 171/43/41 104/44/42
f 187/45/43 30/46/44 146/47/45
f 140/48/46 189/49/47 141/50/48
f 149/51/49 33/52/50 34/53/51
f 186/54/52 24/55/53 103/16/16
f 120/56/54 41/57/55 192/58/10
f 105/59/56 139/60/57 188/61/58
f 102/62/59 26/63/60 170/6/6
f 171/43/41 57/64/61 104/44/42
f 34/65/51 148/66/62 149/67/49
f 57/64/61 145/68/63 160/69/64
f 57/64/61 160/69/64 167/70/65
f 171/43/41 141/50/48 189/49/47
f 35/74/69 105/59/56 148/66/62
f 186/75/52 202/76/70 159/77/71
f 32/78/72 144/79/73 31/80/74
f 196/81/75 194/25/25 139/82/57
f 146/47/45 31/80/74 144/79/73
f 201/83/76 137/84/77 56/85/78
f 154/86/79 140/87/46 141/88/48
f 196/81/75 109/89/80 194/25/25
f 27/93/84 151/94/85 150/24/24
f 150/95/24 48/96/86 49/97/22
f 191/101/90 113/102/91 43/103/92
f 116/104/93 38/105/94 154/86/79
f 193/109/27 47/110/98 152/111/99
f 118/112/100 107/113/101 37/114/102
f 138/118/106 188/61/58 139/60/57
f 40/119/107 126/120/108 41/57/55
f 115/124/112 39/125/113 122/126/114
f 48/96/86 152/127/99 47/128/98
f 147/129/115 162/1/1 106/4/4
f 146/47/45 165/98/87 166/100/89
f 27/130/84 147/129/115 106/4/4
f 189/49/47 156/134/119 155/135/120
f 136/139/124 43/140/92 113/141/91
f 47/128/98 123/145/126 48/96/86
f 125/147/128 47/110/98 108/148/129
f 135/149/130 50/150/131 49/97/22
f 134/151/132 44/152/133 112/153/134
f 136/154/124 124/155/135 53/156/15
f 37/114/102 201/157/76 116/158/93
f 130/160/137 115/161/112 200/162/138
f 124/163/135 42/164/12 114/165/11
f 137/166/77 37/114/102 107/113/101
f 142/167/139 164/136/121 143/168/140
f 158/18/18 1/18/141 74/169/142
f 105/59/56 204/170/143 161/171/144
f 205/172/145 156/134/119 203/173/146
f 129/174/147 198/175/148 109/176/80
f 148/66/62 169/177/149 149/67/49
f 133/181/152 51/182/153 50/183/131
f 36/184/154 104/44/42 147/185/115
f 166/100/89 156/186/119 146/47/45
f 123/145/126 49/97/22 48/96/86
f 153/191/159 51/192/153 195/193/160
f 144/79/73 164/136/121 165/98/87
f 39/199/113 128/200/165 40/119/107
f 163/180/151 149/51/49 169/178/149
f 132/206/169 45/19/19 111/207/170
f 102/62/59 101/5/5 157/208/17
f 155/135/120 171/43/41 189/49/47
f 145/68/63 155/135/120 205/172/145
f 191/101/90 34/213/51 33/214/50
f 119/215/174 190/216/175 112/217/134
f 200/228/138 115/229/112 38/230/94
f 109/231/80 127/232/185 46/233/26
f 197/236/187 45/237/19 196/81/75
f 25/241/189 103/16/16 24/55/53
f 125/254/128 127/255/185 55/256/13
f 26/63/60 106/4/4 170/6/6
f 40/267/107 122/126/114 39/125/113
f 142/167/139 32/78/72 33/52/50
f 105/59/56 168/190/158 148/66/62
f 106/4/4 162/1/1 101/5/5
f 113/102/91 191/101/90 42/12/12
f 191/101/90 192/10/10 42/12/12
f 53/15/15 52/269/200 55/13/13
f 52/269/200 56/270/78 55/13/13
f 103/16/16 102/271/59 157/17/17
f 45/19/19 132/206/169 199/20/20
f 49/22/22 50/272/131 117/23/23
f 109/89/80 46/26/26 194/25/25
f 46/26/26 108/273/129 193/27/27
f 28/42/40 29/278/203 171/43/41
f 187/45/43 140/279/46 30/46/44
f 140/48/46 187/280/43 189/49/47
f 149/51/49 142/167/139 33/52/50
f 186/54/52 138/281/106 24/55/53
f 120/56/54 121/282/204 41/57/55
f 121/282/204 40/119/107 41/57/55
f 41/57/55 114/165/11 192/58/10
f 105/59/56 23/283/205 139/60/57
f 102/62/59 25/284/189 26/63/60
f 171/43/41 58/285/206 57/64/61
f 34/65/51 35/74/69 148/66/62
f 57/64/61 58/285/206 145/68/63
f 167/70/65 147/185/115 57/64/61
f 147/185/115 104/44/42 57/64/61
f 171/43/41 29/278/203 141/50/48
f 35/74/69 23/283/205 105/59/56
f 204/170/143 188/61/58 159/77/71
f 188/61/58 186/75/52 159/77/71
f 32/78/72 143/168/140 144/79/73
f 119/215/174 197/236/187 35/287/69
f 197/236/187 196/81/75 23/288/205
f 194/25/25 193/27/27 24/289/53
f 193/27/27 152/290/99 25/291/189
f 24/289/53 193/27/27 25/291/189
f 23/288/205 35/287/69 197/236/187
f 194/25/25 24/289/53 138/292/106
f 139/82/57 23/288/205 196/81/75
f 194/25/25 138/292/106 139/82/57
f 146/47/45 30/46/44 31/80/74
f 131/293/207 56/85/78 137/84/77
f 56/85/78 52/294/200 200/295/138
f 200/295/138 52/294/200 130/296/137
f 52/294/200 128/297/165 130/296/137
f 200/295/138 201/83/76 56/85/78
f 29/298/203 28/299/40 195/193/160
f 28/299/40 153/191/159 195/193/160
f 195/193/160 118/300/100 29/298/203
f 122/126/114 121/301/204 30/302/44
f 121/301/204 31/303/74 30/302/44
f 141/88/48 29/298/203 118/300/100
f 154/86/79 122/126/114 140/87/46
f 122/126/114 30/302/44 140/87/46
f 141/88/48 118/300/100 154/86/79
f 196/81/75 110/304/21 109/89/80
f 153/191/159 28/299/40 117/23/23
f 28/299/40 36/305/154 117/23/23
f 25/291/189 152/290/99 151/94/85
f 26/306/60 25/291/189 151/94/85
f 150/24/24 117/23/23 36/305/154
f 27/93/84 26/306/60 151/94/85
f 150/24/24 36/305/154 27/93/84
f 150/95/24 151/307/85 48/96/86
f 112/217/134 190/216/175 43/103/92
f 190/216/175 191/101/90 43/103/92
f 154/86/79 118/300/100 116/104/93
f 118/300/100 37/308/102 116/104/93
f 193/109/27 108/148/129 47/110/98
f 118/112/100 195/312/160 107/113/101
f 138/118/106 186/75/52 188/61/58
f 40/119/107 128/200/165 126/120/108
f 122/126/114 154/86/79 115/124/112
f 154/86/79 38/105/94 115/124/112
f 48/96/86 151/307/85 152/127/99
f 147/129/115 167/268/65 162/1/1
f 146/47/45 144/79/73 165/98/87
f 27/130/84 36/315/154 147/129/115
f 189/49/47 187/280/43 156/134/119
f 42/164/12 124/163/135 113/141/91
f 124/163/135 136/139/124 113/141/91
f 47/128/98 125/320/128 123/145/126
f 46/233/26 127/232/185 108/148/129
f 127/232/185 125/147/128 108/148/129
f 135/149/130 133/321/152 50/150/131
f 43/322/92 136/323/124 112/153/134
f 136/323/124 134/151/132 112/153/134
f 128/297/165 52/294/200 126/324/108
f 52/294/200 53/156/15 124/155/135
f 126/324/108 52/294/200 124/155/135
f 53/156/15 54/325/14 132/326/169
f 54/325/14 129/327/147 199/328/20
f 132/326/169 54/325/14 199/328/20
f 132/326/169 134/329/132 53/156/15
f 134/329/132 136/154/124 53/156/15
f 37/114/102 137/166/77 201/157/76
f 130/160/137 39/199/113 115/161/112
f 41/57/55 126/120/108 114/165/11
f 126/120/108 124/163/135 114/165/11
f 51/182/153 131/330/207 107/113/101
f 131/330/207 137/166/77 107/113/101
f 142/167/139 163/180/151 164/136/121
f 74/169/142 202/169/70 186/54/52
f 74/169/142 186/54/52 158/18/18
f 186/54/52 103/16/16 158/18/18
f 105/59/56 188/61/58 204/170/143
f 205/172/145 155/135/120 156/134/119
f 109/176/80 110/21/21 129/174/147
f 110/21/21 199/20/20 129/174/147
f 148/66/62 168/190/158 169/177/149
f 133/181/152 131/330/207 51/182/153
f 36/184/154 28/42/40 104/44/42
f 203/332/146 156/186/119 166/100/89
f 156/186/119 187/45/43 146/47/45
f 123/145/126 135/149/130 49/97/22
f 153/191/159 117/23/23 50/272/131
f 50/272/131 51/192/153 153/191/159
f 51/192/153 107/333/101 195/193/160
f 144/79/73 143/168/140 164/136/121
f 39/199/113 130/160/137 128/200/165
f 163/180/151 142/167/139 149/51/49
f 44/152/133 134/151/132 111/207/170
f 134/151/132 132/206/169 111/207/170
f 102/62/59 170/6/6 101/5/5
f 155/135/120 58/285/206 171/43/41
f 145/68/63 58/285/206 155/135/120
f 119/215/174 35/287/69 190/216/175
f 35/287/69 34/213/51 190/216/175
f 120/339/54 192/10/10 32/340/72
f 192/10/10 191/101/90 33/214/50
f 31/303/74 121/301/204 120/339/54
f 32/340/72 31/303/74 120/339/54
f 191/101/90 190/216/175 34/213/51
f 33/214/50 32/340/72 192/10/10
f 112/217/134 44/341/133 119/215/174
f 44/341/133 111/342/170 197/236/187
f 119/215/174 44/341/133 197/236/187
f 38/230/94 116/158/93 201/157/76
f 201/157/76 200/228/138 38/230/94
f 109/231/80 198/345/148 127/232/185
f 111/342/170 45/237/19 197/236/187
f 45/237/19 110/304/21 196/81/75
f 25/241/189 102/271/59 103/16/16
f 129/327/147 54/325/14 198/353/148
f 54/325/14 55/256/13 127/255/185
f 198/353/148 54/325/14 127/255/185
f 55/256/13 56/85/78 135/354/130
f 56/85/78 131/293/207 133/355/152
f 135/354/130 56/85/78 133/355/152
f 135/354/130 123/356/126 55/256/13
f 123/356/126 125/254/128 55/256/13
f 26/63/60 27/130/84 106/4/4
f 40/267/107 121/301/204 122/126/114
f 142/167/139 143/168/140 32/78/72
f 105/59/56 161/171/144 168/190/158
